<svg xmlns="http://www.w3.org/2000/svg" viewBox="0 0 128 128"><defs><style>.cls-4{fill:#333}.cls-5{fill:#1f1f1f}</style></defs><g id="_01_Pencil" data-name="01 Pencil"><path d="M42 112l56-56-26-26-56 56v24a2 2 0 0 0 2 2h24z" fill="#ffc219"/><path d="M18 112c-1-1-1 1-1-25l56-56-1-1-56 56v24a2 2 0 0 0 2 2z" fill="#ffda75"/><path d="M98 56l-3-3-26-21 19 21a5 5 0 0 1 0 7l-49 48H16v2a2 2 0 0 0 2 2h24l56-56z" fill="#f47c27"/><path class="cls-4" transform="rotate(45 56 72)" d="M49 34h14v76H49z"/><path class="cls-5" d="M77 41l9 11 1-2-9-9h-1z"/><path d="M79 24h28a5 5 0 0 1 5 5v17H74V29a5 5 0 0 1 5-5z" transform="rotate(45 93 35)" fill="#dd6966"/><path d="M111 37l-2-2a5 5 0 0 1-1 5l-7 6a4 4 0 0 1-5 1L74 27l20 27 1-1 3 3 13-12a5 5 0 0 0 0-7z" fill="#d2423f"/><path transform="rotate(45 85 43)" fill="#ccc" d="M66 40h37v7H66z"/><path d="M97 50l-4 5h-1l4 4 5-5z" fill="#b3b3b3"/><path d="M16 86v24a2 2 0 0 0 2 2h24z" fill="#f7e9da"/><path d="M17 87l-1-1v24a2 2 0 0 0 2 2c-1-1-1 1-1-25z" fill="#f7f3f0"/><path d="M39 108H16v2a2 2 0 0 0 2 2h24z" fill="#efd3b6"/><path class="cls-4" d="M16 105v5a2 2 0 0 0 2 2h5z"/><path class="cls-4" d="M16 105v5a2 2 0 0 0 2 2h5z"/><path d="M17 106l-1-1v5a2 2 0 0 0 2 2l-1-6z" fill="#666"/><path class="cls-5" d="M16 108v2a2 2 0 0 0 2 2h5l-3-4z"/><path d="M73 31l13-12a5 5 0 0 1 6 0l19 18-20-20a5 5 0 0 0-7 0L72 30z" fill="#e88f8d"/><path d="M71 34l5-5-2-2-5 5z" fill="#e6e6e6"/></g></svg>