<svg xmlns="http://www.w3.org/2000/svg" viewBox="0 0 128 128"><defs><style>.cls-3{fill:#ba3b38}.cls-7{fill:#f2f2f2}</style></defs><g id="_07_Note_Book" data-name="07 Note Book"><rect x="26" y="16" width="77" height="96" rx="6" ry="6" fill="#d2423f"/><path d="M27 24a6 6 0 0 1 6-6c71 0 66-1 69 1a6 6 0 0 0-5-3H32a6 6 0 0 0-6 6v84a6 6 0 0 0 2 5c-1-2-1 3-1-87z" fill="#dd6966"/><path class="cls-3" d="M96 16a6 6 0 0 1 0 3v84a6 6 0 0 1-6 6H45a2 2 0 0 1-2-3l-2-45v48H26a6 6 0 0 0 6 3h65a6 6 0 0 0 6-6V22c0-3-3-6-7-6z"/><path d="M32 16h9v96h-9a6 6 0 0 1-6-6V22a6 6 0 0 1 6-6z" fill="#333"/><path d="M28 111c-1-2-1 3-1-87a6 6 0 0 1 6-6h8v-2h-9a6 6 0 0 0-6 6v84a6 6 0 0 0 2 5z" fill="#4d4d4d"/><path d="M26 109a6 6 0 0 0 6 3h9v-7c-1 4 0 4-15 4z" fill="#1f1f1f"/><path class="cls-3" d="M54 53V37a4 4 0 0 1 3-4h29a4 4 0 0 1 3 4v16a4 4 0 0 1-3 4H57a4 4 0 0 1-3-4zm33 33H56a2 2 0 0 0 0 4h31a2 2 0 0 0 0-4zm-3 9H59a2 2 0 0 0 0 4h25a2 2 0 0 0 0-4z"/><rect class="cls-7" x="53" y="32" width="36" height="24" rx="4" ry="4"/><path class="cls-7" d="M86 89H55a2 2 0 0 1 0-4h31a2 2 0 0 1 0 4zM83 98H58a2 2 0 0 1 0-4h25a2 2 0 0 1 0 4z"/></g></svg>