<svg xmlns="http://www.w3.org/2000/svg" viewBox="0 0 128 128"><defs><style>.cls-1{fill:#f2f2f2}.cls-2{fill:#f7f7f7}.cls-3{fill:#e6e6e6}.cls-4{fill:#333}</style></defs><g id="_09_Examination" data-name="09 Examination"><path class="cls-1" d="M97 16a6 6 0 0 1 6 6v84a6 6 0 0 1-6 6H32a6 6 0 0 1-6-6V32l16-16z"/><path class="cls-2" d="M29 107V29l-3 3v74a6 6 0 0 0 6 6 6 6 0 0 1-3-5zM100 17c-2-1 1-1-58-1l-1 1z"/><path class="cls-3" d="M97 16h-4a6 6 0 0 1 6 6v81a6 6 0 0 1-6 6H26a6 6 0 0 0 6 3h65a6 6 0 0 0 6-6V22a6 6 0 0 0-6-6z"/><path class="cls-1" d="M36 32H26l16-16v10a6 6 0 0 1-6 6z"/><path class="cls-2" d="M42 17v-1L26 32h1l15-15z"/><path class="cls-3" d="M33 32h3a6 6 0 0 0 6-6v-3a9 9 0 0 1-9 9z"/><path class="cls-4" d="M89 72H39a2 2 0 0 1 0-4h50a2 2 0 0 1 0 4zM89 84H39a2 2 0 0 1 0-4h50a2 2 0 0 1 0 4zM89 96H39a2 2 0 0 1 0-4h50a2 2 0 0 1 0 4z"/><path d="M88 44l-7-16a3 3 0 0 0-5 0l-6 16a2 2 0 0 0 0 2 2 2 0 0 0 4 0l1-4h8l1 4a2 2 0 1 0 4-2zm-7-6h-4l2-5z" fill="#d2423f"/><path class="cls-3" d="M42 27v-8a3 3 0 0 1 3-2l4-1h-7zM36 32l-7 1a3 3 0 0 0-3 2v4-7z"/></g></svg>